DataType=double
version=3
OpenSimVersion=4.3
inDegrees=no
endheader
time	ground_thorax_rot_x	ground_thorax_rot_y	ground_thorax_rot_z	ground_thorax_tx	ground_thorax_ty	ground_thorax_tz	clav_prot	clav_elev	scapula_abduction	scapula_elevation	scapula_upward_rot	scapula_winging	shoulder_elv	plane_of_elev	axial_rot	elbow_flexion	pro_sup
4.44939	-0.07358752142806754	-0.1563994521401373	-0.2195366939242946	-0.6900998590548514	0.2469772666048021	0.407988991172813	-0.3931646141926524	-0.0683817661739097	-0.2875543116742688	-0.2560436398051814	0.7332032725338516	0.2958636321161889	1.28025086002201	-0.6185203822691882	-0.3158657285138163	0.3118030560253199	1.2316350816992
4.46035	-0.07143535550695665	-0.1534496537713184	-0.2203964713879399	-0.6906747304602667	0.2466232975665926	0.4060247370508939	-0.3957405832130187	-0.06683927973069551	-0.2925685375865544	-0.2551260395767224	0.7337992974917078	0.2946680511248052	1.25673465216233	-0.6250325402641222	-0.3513066217290476	0.328157554292861	1.234893005015251
4.47229	-0.06971650347939562	-0.157114022135285	-0.2197534367569422	-0.6901788189157806	0.246437308862443	0.4049076785565376	-0.3921251140208187	-0.06753321779262073	-0.2914907488003582	-0.254496186201409	0.7286520982085297	0.2961988428930325	1.244837177408036	-0.6239242075629604	-0.351170874636804	0.3286255461773565	1.236174474734611
4.48026	-0.06260396854352508	-0.1554127889226426	-0.2193571927662592	-0.6895671470119029	0.2452314731790262	0.399401800927889	-0.4079361038073243	-0.04892129932021785	-0.2877890007461627	-0.24733067099714	0.7639643820918381	0.2797292233868965	1.185139962561333	-0.6321657867523154	-0.3935625820737789	0.3490716606262152	1.269899730162619
4.49021	-0.06347192254400261	-0.1573876865298297	-0.2179614577364243	-0.688447818066381	0.2455551332718238	0.4004442644327565	-0.4032997277837284	-0.05355371399566099	-0.2875627870913053	-0.2490545770010756	0.7550303553474612	0.2837678586410481	1.17267919186571	-0.6353926038415476	-0.3990739449178757	0.3536031430530472	1.27082984406566
4.49918	-0.06365864169028634	-0.1564585929265434	-0.2192082543042556	-0.689499184538885	0.2454874712950308	0.4003961644246387	-0.3995139212165936	-0.05778034777434456	-0.2925349077812314	-0.2500536376694551	0.7433792487081535	0.2880772578666213	1.158520683545782	-0.6387797735195713	-0.4208857835322921	0.3641965130098529	1.270919571529693
4.50914	-0.06203764159822974	-0.1587458945726175	-0.2194933483524933	-0.6897774122919774	0.2451871710394602	0.3991280905837188	-0.3945852328314742	-0.0591488366096309	-0.2925977682109157	-0.2493116371517817	0.735002583447166	0.2906307978656191	1.146440066137307	-0.6387688780368441	-0.4226013487578024	0.3649348703345547	1.271356955689039
4.52009	-0.06235108907322157	-0.1578876790944497	-0.2190461618499271	-0.6893518145570166	0.2453468541260209	0.3995673937021473	-0.3905659369506516	-0.06367655579192327	-0.2999669113836099	-0.2499436027992737	0.7208065750960052	0.295617366036236	1.130818572997915	-0.640708539844657	-0.4503118267259242	0.3765791851207201	1.269809425968674
4.53005	-0.06042950165254678	-0.1603502597815848	-0.2189921848859779	-0.6893876926386664	0.2450523785389098	0.398143254741139	-0.385459350503914	-0.06530804709478402	-0.2998877759857368	-0.2492405439142867	0.7120928133569848	0.2984154839922188	1.118299945939763	-0.6403334410344831	-0.4517775676960608	0.377321095109866	1.270233230673678
4.53901	-0.06077176624586311	-0.1591616011171955	-0.2189256453332326	-0.6892961040049148	0.2451796258180975	0.39855473906658	-0.3820262653128694	-0.07071751597582522	-0.3072151247312884	-0.2505734495503318	0.6984094841960429	0.3037172752405262	1.101678937498515	-0.6418254195148339	-0.4786468737082193	0.3872476470008007	1.269291158423137
4.54996	-0.05846671945915844	-0.1617290531753324	-0.2190122094780699	-0.6894513498040247	0.2447922406378128	0.396772019018978	-0.3769518197149312	-0.07220376267553699	-0.3070697215700013	-0.2497161164897659	0.689728387253545	0.306458368218947	1.088910294122772	-0.6409032603606593	-0.4792737832340102	0.3876525195270067	1.269803818807691
4.56092	-0.05828140761308648	-0.1608153851002141	-0.2185052053804037	-0.68903137102277	0.2448178921730359	0.3968466282771796	-0.3737918969601183	-0.07620687803708655	-0.3150264261947177	-0.2499543879183416	0.676415581505097	0.3111268665588443	1.070026130443334	-0.6403818338795065	-0.5047079300377014	0.3975885248598164	1.268631363510916
4.57187	-0.05648568311772087	-0.1640380288389771	-0.2185118652178975	-0.6891579271750526	0.2445129520719113	0.395552974624647	-0.3684291604857653	-0.07809708639723832	-0.314740893890028	-0.2492103676847751	0.6671664199816641	0.3141455098058771	1.055388431429439	-0.6382724103741338	-0.5070356377931536	0.3970960710300528	1.268888156858888
4.58083	-0.05707080993721451	-0.1632808983102793	-0.2189238102474301	-0.6895168314187187	0.2445538405774969	0.3961670043069218	-0.3660052871235428	-0.08283118350078986	-0.3237813038085159	-0.2499528312869203	0.6537998761744449	0.3192067684556801	1.032250186799815	-0.6355574971197474	-0.5456636024169537	0.4050654629411674	1.265633750685538
4.59178	-0.05502306900266511	-0.1663720164641507	-0.2190836404480108	-0.689738107847983	0.2441911260073303	0.3946639194604185	-0.3601448213988287	-0.08433213894841715	-0.3234394774748073	-0.2486065131472475	0.6437548696376798	0.3222836355685514	1.01662630321537	-0.6337367162657712	-0.5467033573481039	0.4045280551763806	1.26605307224472
4.60075	-0.05515038183666206	-0.1659338410692119	-0.2193221166508545	-0.6899317473269458	0.2441871685958625	0.3949948643880449	-0.3567765231500066	-0.08953026166271701	-0.3308789806879097	-0.2494079669292823	0.6297897322049825	0.327820253566477	0.9951983312079998	-0.6314688158615491	-0.5788171647559207	0.4099955851519574	1.263848841743029
4.6117	-0.05263998763201889	-0.1678152074774736	-0.219093542350576	-0.6897828754442044	0.2437999238476	0.3931473736413007	-0.3508791704851966	-0.09128590268687771	-0.3304802905692739	-0.2481148197414331	0.6195750058217039	0.3310769611935307	0.9801199725715267	-0.6305940114583947	-0.5790806630145853	0.4079528930178704	1.264382957990799
4.61967	-0.05100051843692803	-0.1694617234310851	-0.2176665807461927	-0.6886344007980815	0.2436824479794612	0.3922522307048951	-0.3452573307630073	-0.09439544179578464	-0.3308150524045135	-0.2477606252072689	0.6086589957214444	0.3350999277435817	0.9643236708334795	-0.6296302772703807	-0.5826793495336298	0.4057772319024705	1.264446304114589
4.63062	-0.04903666152328488	-0.1701230618662722	-0.2177641442333552	-0.6887301513546246	0.24333742494333	0.3907860026597046	-0.3399908119919479	-0.09771967630918632	-0.3317082238524255	-0.2475312421144855	0.5976432133565426	0.3392561478911877	0.9491708098079126	-0.6289063310868538	-0.5868379149628367	0.403203468611214	1.264502260910843
4.64257	-0.04807133867487382	-0.1693629044071642	-0.2190796246637801	-0.6897636973400506	0.2432234310122731	0.3900491186738252	-0.3375107425119912	-0.1057330307716333	-0.338359093326202	-0.2506248861949336	0.5842902894291861	0.3459215730890381	0.9332686234141946	-0.6253796830277122	-0.607318166846469	0.4004813382684367	1.26423425643469
4.65053	-0.04518110444633002	-0.1708734290620731	-0.2178968966062586	-0.6888098549007547	0.2429285827765132	0.3881060801133293	-0.331737421493806	-0.1076602713979257	-0.3380665911317722	-0.2493040753683403	0.5739033950468676	0.3492977041374059	0.9190443941916923	-0.6236351872688202	-0.6065954472805931	0.3970236085461988	1.265122834964591
4.66002	-0.0428197747582116	-0.1721562628423454	-0.2168125269841299	-0.6879143707015242	0.2427005828431865	0.3865907153639739	-0.3261544527289472	-0.1101336393748333	-0.3383502247482416	-0.2482996678668963	0.5630790954961414	0.3529909546742322	0.9046059204938725	-0.621150173584342	-0.6077163767340243	0.3914333652113663	1.266024217809686
4.67297	-0.04085337262930103	-0.1733744849448006	-0.2160227137536939	-0.6873317942402032	0.2424920544274249	0.3854203390920725	-0.3205824704186924	-0.1129691627049163	-0.339294165846306	-0.2473692410504526	0.5514908619855343	0.3570237549753867	0.8897703361727829	-0.6174175003464843	-0.610786073048124	0.3846816500150552	1.266807197958639
4.68093	-0.03918974129603055	-0.1731599114135524	-0.2167563951328751	-0.6879274457268688	0.2423715320003546	0.3843180061604797	-0.3174180533867125	-0.1194780786118694	-0.347814060344576	-0.248385780486257	0.5356378910732893	0.363832540967363	0.8771062709003496	-0.6082489917732744	-0.6306011703934066	0.3748328414245514	1.267383167172411
4.69288	-0.03613617984580687	-0.1732520015839318	-0.2164968188942953	-0.6877746520824553	0.2419555082576014	0.3820676493787852	-0.3112354207018325	-0.1215539391175566	-0.3479557662159691	-0.2466839433583005	0.5238219139182627	0.3675103570483069	0.8628382125826298	-0.6069815846245312	-0.63033444378972	0.3715621304680606	1.268074648842229
4.70284	-0.03439954018878517	-0.1738687028003623	-0.2141982616663648	-0.6858387632885431	0.241932986327766	0.3813286276166105	-0.305417905254939	-0.1250530159521032	-0.3490410710580008	-0.2458271668021957	0.5110947789343525	0.3721206135904319	0.8478208546499431	-0.6048849934540749	-0.6337237384122553	0.3646525872894149	1.268426062774048
4.70981	-0.0337248760345174	-0.1729057593852247	-0.2156305258771553	-0.6870049418530478	0.2418768023840044	0.3809067136284339	-0.3010609191371749	-0.134725194605973	-0.3564558614576906	-0.2484715019184704	0.4923069711179185	0.3810795774378429	0.8371129788213566	-0.5998088850377533	-0.654694044402174	0.3556062629960549	1.266385901235476
4.71877	-0.03071342918379818	-0.1725297821022996	-0.215122310248157	-0.6866160738603221	0.2415081466683877	0.3787023566035158	-0.2945283259220028	-0.1369178452180257	-0.3564959898368903	-0.2464548187544801	0.4796029426303766	0.3849922221442087	0.8226643441091798	-0.5987389539939855	-0.6553902985902758	0.3522243413632345	1.266564273416762
4.72872	-0.03043172622526631	-0.1722314398695564	-0.2150647395674859	-0.6865935223936065	0.241531304168179	0.3789159193405852	-0.2882690979998603	-0.1445383873328408	-0.3630228668336993	-0.2465989759961488	0.4588919138660317	0.393578412010914	0.8112431009261553	-0.5937760598434312	-0.6770580148328101	0.3466046200073232	1.262773183138544
